<svg xmlns="http://www.w3.org/2000/svg" width="126.94" height="34.48" viewBox="0 0 126.94 34.48">
  <defs>
    <style>
      .cls-1 {
        fill: #fff;
      }

      .cls-2 {
        fill: none;
      }
    </style>
  </defs>
  <title>Asset 3</title>
  <g id="Layer_2" data-name="Layer 2">
    <g id="Livello_4" data-name="Livello 4">
      <g>
        <g>
          <path class="cls-1" d="M43,18l-3.75-5.52H42l2.19,3.69,2.2-3.69H49.1L45.35,18v3H43Z"/>
          <path class="cls-1" d="M54.43,19.25H50.54L49.85,21H47.37l3.73-8.48h2.78L57.6,21H55.12Zm-1.94-4.9-1.33,3.36h2.66Z"/>
          <path class="cls-1" d="M56.62,12.52h2.3l1.64,6.18h0l1.73-6.18h2.3l1.74,6.18h0L68,12.52h2.3L67.64,21H65.26l-1.78-6h0l-1.78,6H59.3Z"/>
          <path class="cls-1" d="M78.42,12.52h2.23V21H78.14l-4.62-5.91h0V21H71.27V12.52h2.67l4.45,5.91h0Z"/>
          <path class="cls-1" d="M86.79,12.64h.58V18.4H89v.47H87.37V21h-.54V18.87H82.24v-.55Zm-4,5.76h4V13.33h0Z"/>
          <path class="cls-1" d="M92.58,16.3c1.28,0,2.92,0,2.92-1.57,0-1.4-1.12-1.8-2.34-1.8-1.58,0-2.64.68-2.64,2.32H90c.06-2,1.29-2.8,3.18-2.8s2.88.8,2.88,2.2c0,1.22-.77,1.74-1.85,1.84v0a2.07,2.07,0,0,1,2.07,2.28c0,1.39-1.06,2.4-3.21,2.4s-3.27-.91-3.3-3h.55c0,1.75,1,2.49,2.81,2.49,1.17,0,2.6-.35,2.6-2,0-1.9-2-1.9-3.13-1.9Z"/>
          <path class="cls-1" d="M100.58,21.19c-2.61,0-3.5-2.05-3.5-4.37s.9-4.37,3.5-4.37,3.5,2,3.5,4.37S103.23,21.19,100.58,21.19Zm0-8.26c-2.27,0-3,1.91-3,3.89s.66,3.89,3,3.89,3-1.86,3-3.89S102.9,12.93,100.58,12.93Z"/>
          <path class="cls-1" d="M108.38,21.19c-2.61,0-3.5-2.05-3.5-4.37s.9-4.37,3.5-4.37,3.5,2,3.5,4.37S111,21.19,108.38,21.19Zm0-8.26c-2.27,0-3,1.91-3,3.89s.67,3.89,3,3.89,3-1.86,3-3.89S110.7,12.93,108.38,12.93Z"/>
        </g>
        <path class="cls-1" d="M112.8,12.86h-.71v-.37H114v.37h-.7v1.91h-.48Zm3.81.1h0l-.69,1.81h-.31L114.91,13h0v1.81h-.44V12.49h.66l.64,1.61.63-1.61h.67v2.28h-.45Z"/>
        <g>
          <path class="cls-1" d="M32.61,17.74v.49H21a3.9,3.9,0,0,1-3.88-3.89V10.45h.49v3.89A3.4,3.4,0,0,0,21,17.74Z"/>
          <path class="cls-1" d="M36.5,10.45V19.2a3.87,3.87,0,0,1-2,3.39,3.81,3.81,0,0,1-1.88.49H17.08v-.49H32.61A3.4,3.4,0,0,0,36,19.2V10.45Z"/>
          <path class="cls-1" d="M35.53,10.44V19.2A2.89,2.89,0,0,1,35,20.81a2.75,2.75,0,0,1-.82.81,2.86,2.86,0,0,1-1.61.49H17.08v-.49H32.61A2.42,2.42,0,0,0,35,19.2V10.44Z"/>
          <path class="cls-1" d="M34.55,10.44V19.2a1.93,1.93,0,0,1-.48,1.28,1.37,1.37,0,0,1-.17.17,2,2,0,0,1-1.29.49H17.08v-.49H32.61a1.45,1.45,0,0,0,1.46-1.45V10.44Z"/>
          <path class="cls-1" d="M33.58,10.44V19.2a.89.89,0,0,1-.13.48,1,1,0,0,1-.84.49H17.08v-.49H32.61a.49.49,0,0,0,.49-.48V10.44Z"/>
          <path class="cls-1" d="M32.61,15.8v.48H21a1.93,1.93,0,0,1-1.28-.48c-.06-.06-.12-.11-.17-.17A1.93,1.93,0,0,1,19,14.34V10.45h.49v3.89A1.45,1.45,0,0,0,21,15.8Z"/>
          <path class="cls-1" d="M32.61,16.77v.48H21a2.92,2.92,0,0,1-2.91-2.91V10.45h.49v3.89A2.42,2.42,0,0,0,21,16.77Z"/>
          <path class="cls-1" d="M32.61,14.82v.48H21a1,1,0,0,1-.84-.48,1,1,0,0,1-.13-.49V10.44h.49v3.89a.49.49,0,0,0,.48.49Z"/>
        </g>
      </g>
      <rect class="cls-2" width="126.94" height="34.48"/>
    </g>
  </g>
</svg>
