<svg xmlns="http://www.w3.org/2000/svg" width="52.25" height="42.83" viewBox="0 0 52.25 42.83">
  <title>Asset 12</title>
  <g id="Layer_2" data-name="Layer 2">
    <g id="Livello_4" data-name="Livello 4">
      <path d="M41.82,19.61v1.31H10.52a10.44,10.44,0,0,1-9.13-5.38A10.3,10.3,0,0,1,.08,10.48V0H1.39V10.48a9.12,9.12,0,0,0,9.13,9.13Z"/>
      <path d="M52.25,0V23.53A10.42,10.42,0,0,1,41.82,34H.08v-1.3H41.82A9.13,9.13,0,0,0,51,23.53V0Z"/>
      <path d="M49.65,0V23.53a7.72,7.72,0,0,1-1.31,4.32,7.91,7.91,0,0,1-2.19,2.2,7.83,7.83,0,0,1-4.33,1.3H.08v-1.3H41.82a6.52,6.52,0,0,0,6.52-6.52V0Z"/>
      <path d="M47,0V23.53A5.22,5.22,0,0,1,45.73,27a5,5,0,0,1-.46.46,5.21,5.21,0,0,1-3.45,1.3H.08v-1.3H41.82a3.91,3.91,0,0,0,3.91-3.91V0Z"/>
      <path d="M44.43,0V23.53a2.6,2.6,0,0,1-2.61,2.6H.08v-1.3H41.82a1.3,1.3,0,0,0,1.3-1.3V0Z"/>
      <path d="M41.82,14.4v1.3H10.52A5.22,5.22,0,0,1,5.3,10.48V0H6.6V10.48a3.92,3.92,0,0,0,3.92,3.92Z"/>
      <path d="M41.82,17v1.31H10.52a7.82,7.82,0,0,1-7.83-7.83V0H4V10.48A6.52,6.52,0,0,0,10.52,17Z"/>
      <path d="M41.82,11.76v1.31H10.52a2.61,2.61,0,0,1-2.26-1.31,2.51,2.51,0,0,1-.35-1.3V0h1.3V10.46a1.31,1.31,0,0,0,1.31,1.3Z"/>
      <g>
        <path d="M2.71,40.55,0,36.57H2l1.59,2.66,1.59-2.66h2l-2.71,4v2.14H2.71Z"/>
        <path d="M10.86,41.43H8.05l-.49,1.26H5.76l2.7-6.12h2l2.69,6.12H11.36Zm-1.4-3.54-1,2.42h1.92Z"/>
        <path d="M12.39,36.57h1.66L15.23,41h0l1.25-4.46h1.66L19.42,41h0l1.19-4.46h1.66l-1.94,6.12H18.63l-1.29-4.36h0L16,42.69H14.32Z"/>
        <path d="M28.08,36.57h1.61v6.12H27.88l-3.33-4.27h0v4.27H22.92V36.57h1.93l3.21,4.27h0Z"/>
        <path d="M34.08,36.65h.42v4.16h1.15v.35H34.5v1.53h-.39V41.16H30.8v-.41Zm-2.89,4.16h2.92V37.15h0Z"/>
        <path d="M38.21,39.29c.93,0,2.11,0,2.11-1.13s-.81-1.3-1.69-1.3c-1.14,0-1.9.5-1.9,1.68h-.4c0-1.43.94-2,2.3-2s2.08.57,2.08,1.58-.55,1.26-1.33,1.33v0a1.5,1.5,0,0,1,1.49,1.65c0,1-.77,1.73-2.32,1.73s-2.36-.66-2.38-2.15h.39c0,1.26.74,1.8,2,1.8.84,0,1.87-.25,1.87-1.47S39,39.64,38.21,39.64Z"/>
        <path d="M43.94,42.83c-1.88,0-2.52-1.49-2.52-3.16s.65-3.15,2.52-3.15,2.53,1.47,2.53,3.15S45.86,42.83,43.94,42.83Zm0-6c-1.63,0-2.13,1.38-2.13,2.81s.48,2.81,2.13,2.81,2.14-1.34,2.14-2.81S45.62,36.86,43.94,36.86Z"/>
        <path d="M49.54,42.83c-1.89,0-2.53-1.49-2.53-3.16s.65-3.15,2.53-3.15,2.53,1.47,2.53,3.15S51.45,42.83,49.54,42.83Zm0-6c-1.64,0-2.14,1.38-2.14,2.81s.48,2.81,2.14,2.81,2.13-1.34,2.13-2.81S51.21,36.86,49.54,36.86Z"/>
      </g>
      <path d="M49,33.81h-.5v-.26h1.35v.26h-.5v1.37H49Zm2.75.07h0l-.5,1.3H51l-.5-1.3h0v1.3h-.31V33.55h.47l.46,1.16.46-1.16h.47v1.63h-.31Z"/>
    </g>
  </g>
</svg>
